<svg width="133" height="45" viewBox="0 0 133 45" fill="none" xmlns="http://www.w3.org/2000/svg">
<path d="M1 27.75C0.866667 27.75 0.866667 27.6 1 27.3C1.16667 27 1.31667 26.6667 1.45 26.3C1.61667 25.9333 1.78333 25.5333 1.95 25.1C2.28333 24.3 2.65 23.4 3.05 22.4C3.45 21.4 3.83333 20.4333 4.2 19.5C4.56667 18.5333 4.88333 17.7167 5.15 17.05C5.45 16.35 5.65 15.9 5.75 15.7C5.28333 16.2 4.71667 16.8333 4.05 17.6C3.41667 18.3333 2.81667 19.05 2.25 19.75C1.68333 20.45 1.25 21 0.95 21.4C0.85 21.5333 0.766667 21.6 0.7 21.6C0.633333 21.6 0.6 21.5167 0.6 21.35C0.6 21.0833 0.683333 20.8333 0.85 20.6C1.48333 19.8 2.18333 18.9 2.95 17.9C3.75 16.9 4.46667 15.9833 5.1 15.15C5.73333 14.2833 6.13333 13.7167 6.3 13.45C6.66667 13.3833 7.2 13.2833 7.9 13.15C8.63333 13.0167 9.13333 12.8333 9.4 12.6C9.5 12.5 9.6 12.45 9.7 12.45C9.76667 12.45 9.8 12.5167 9.8 12.65C9.83333 12.75 9.8 12.8667 9.7 13C9.5 13.2333 9.15 13.7833 8.65 14.65C8.18333 15.4833 7.66667 16.4167 7.1 17.45C6.56667 18.4833 6.06667 19.4167 5.6 20.25C6.13333 19.6167 6.65 19.0167 7.15 18.45C7.68333 17.8833 8.05 17.4833 8.25 17.25C8.65 16.85 9.2 16.35 9.9 15.75C10.6 15.15 11.3333 14.6 12.1 14.1C12.8667 13.6 13.5333 13.3167 14.1 13.25C14.2333 13.2167 14.35 13.2 14.45 13.2C14.55 13.2 14.65 13.2 14.75 13.2C15.3833 13.2 15.7 13.4333 15.7 13.9C15.7 14.1 15.65 14.3333 15.55 14.6C15.45 14.8667 15.3167 15.1333 15.15 15.4C14.95 15.8 14.6167 16.4333 14.15 17.3C13.6833 18.1333 13.2667 18.9 12.9 19.6L15.25 17.25C15.65 16.85 16.2 16.35 16.9 15.75C17.6 15.15 18.3333 14.6 19.1 14.1C19.8667 13.6 20.5333 13.3167 21.1 13.25C21.2333 13.2167 21.35 13.2 21.45 13.2C21.5833 13.2 21.6833 13.2 21.75 13.2C22.4833 13.2 22.85 13.4667 22.85 14C22.85 14.4 22.6333 14.9333 22.2 15.6C21.9667 15.9667 21.6 16.5833 21.1 17.45C20.6 18.3167 20.0833 19.2667 19.55 20.3C19.05 21.3 18.6167 22.2333 18.25 23.1C17.8833 23.9667 17.7 24.6 17.7 25C17.7 25.4667 17.9333 25.7 18.4 25.7C18.8333 25.7 19.3833 25.45 20.05 24.95C20.75 24.4167 21.45 23.7833 22.15 23.05C22.8833 22.3167 23.5167 21.6167 24.05 20.95C24.2833 20.6833 24.5 20.4167 24.7 20.15C24.9333 19.85 25.0667 19.6833 25.1 19.65C25.1667 19.7167 25.2 19.8333 25.2 20C25.2 20.2333 25.1167 20.4667 24.95 20.7C24.8167 20.9 24.6833 21.0833 24.55 21.25C23.9167 22.0833 23.1833 22.95 22.35 23.85C21.55 24.75 20.6667 25.5167 19.7 26.15C18.7333 26.75 17.7 27.1 16.6 27.2C16.2667 27.2333 15.9333 27.1667 15.6 27C15.2667 26.8333 15.1 26.5667 15.1 26.2C15.1 25.7333 15.2167 25.1833 15.45 24.55C15.7167 23.9167 16 23.2833 16.3 22.65C16.6333 22.0167 16.8833 21.5 17.05 21.1C17.65 19.9333 18.2 18.8333 18.7 17.8C19.2 16.7667 19.55 16.0333 19.75 15.6C19.85 15.4 19.9 15.2333 19.9 15.1C19.9 14.8667 19.7167 14.85 19.35 15.05C18.9833 15.25 18.5333 15.55 18 15.95C17.5 16.35 17.0333 16.75 16.6 17.15C16.1667 17.5167 15.8833 17.7667 15.75 17.9C15.1833 18.4667 14.5 19.2333 13.7 20.2C12.9333 21.1667 12.2167 22.1833 11.55 23.25C10.8833 24.2833 10.4167 25.25 10.15 26.15C9.81667 26.45 9.5 26.6 9.2 26.6C8.96667 26.6 8.76667 26.5167 8.6 26.35C8.46667 26.1833 8.4 25.9833 8.4 25.75C8.4 25.0833 8.6 24.3 9 23.4C9.43333 22.4667 9.78333 21.7 10.05 21.1C10.65 19.9333 11.2 18.8333 11.7 17.8C12.2 16.7667 12.55 16.0333 12.75 15.6C12.85 15.4 12.9 15.2333 12.9 15.1C12.9 14.8667 12.7167 14.85 12.35 15.05C11.9833 15.25 11.5333 15.55 11 15.95C10.5 16.35 10.0333 16.75 9.6 17.15C9.16667 17.5167 8.88333 17.7667 8.75 17.9C7.95 18.7333 7.2 19.5833 6.5 20.45C5.83333 21.3167 5.26667 22.25 4.8 23.25C4.53333 23.85 4.25 24.5167 3.95 25.25C3.65 25.9833 3.4 26.6 3.2 27.1C2.76667 27.1333 2.33333 27.25 1.9 27.45C1.46667 27.65 1.16667 27.75 1 27.75ZM19.0363 44.5C17.7697 44.5 16.553 44.2 15.3863 43.6C14.1863 43.0333 13.303 42.15 12.7363 40.95C12.5363 40.5167 12.403 40.05 12.3363 39.55C12.2697 39.0833 12.2363 38.6167 12.2363 38.15V37.6C12.2363 37.3333 12.2697 37.0833 12.3363 36.85C12.403 36.65 12.5697 36.55 12.8363 36.55C12.903 36.55 12.9363 36.5833 12.9363 36.65C12.9363 36.85 12.9197 37.05 12.8863 37.25C12.853 37.45 12.8363 37.6667 12.8363 37.9C12.8363 39.4333 13.3363 40.6 14.3363 41.4C15.303 42.2 16.5197 42.6 17.9863 42.6C18.5863 42.6 19.203 42.5333 19.8363 42.4C20.4697 42.2667 21.0697 42.0833 21.6363 41.85C23.7363 40.95 25.553 39.6667 27.0863 38C28.653 36.3667 30.0197 34.5167 31.1863 32.45C32.353 30.3833 33.403 28.2833 34.3363 26.15C34.8697 24.8833 35.3363 23.65 35.7363 22.45C36.1697 21.25 36.553 20.1667 36.8863 19.2C36.553 19.6667 36.1197 20.2333 35.5863 20.9C35.053 21.5667 34.5197 22.2167 33.9863 22.85C33.453 23.45 32.9863 23.9333 32.5863 24.3C31.753 25.1 30.853 25.7833 29.8863 26.35C28.953 26.8833 27.9863 27.15 26.9863 27.15C26.653 27.15 26.3697 27.0833 26.1363 26.95C25.903 26.8167 25.7863 26.5667 25.7863 26.2C25.7863 25.7333 25.903 25.1833 26.1363 24.55C26.403 23.9167 26.6863 23.2833 26.9863 22.65C27.2863 22.0167 27.5363 21.5 27.7363 21.1C28.1363 20.3333 28.5197 19.5667 28.8863 18.8C29.253 18.0333 29.5697 17.3833 29.8363 16.85C30.103 16.35 30.2363 16.0167 30.2363 15.85C30.2363 15.5833 30.0363 15.5833 29.6363 15.85C29.2697 16.1167 28.9197 16.3833 28.5863 16.65C27.853 17.35 27.0863 18.1833 26.2863 19.15C25.4863 20.0833 24.8697 20.8333 24.4363 21.4C24.3363 21.5333 24.253 21.6 24.1863 21.6C24.1197 21.6 24.0863 21.5167 24.0863 21.35C24.0863 21.0833 24.1697 20.8333 24.3363 20.6C24.803 19.9333 25.353 19.2 25.9863 18.4C26.6197 17.6 27.2697 16.8333 27.9363 16.1C28.5697 15.4333 29.2197 14.7833 29.8863 14.15C30.553 13.5167 31.403 13.2 32.4363 13.2C33.1363 13.2 33.4863 13.4667 33.4863 14C33.4863 14.4667 33.2863 15 32.8863 15.6C32.653 15.9667 32.2863 16.5833 31.7863 17.45C31.2863 18.3167 30.7697 19.2667 30.2363 20.3C29.7363 21.3 29.303 22.2333 28.9363 23.1C28.5697 23.9667 28.3863 24.6 28.3863 25C28.3863 25.4667 28.6197 25.7 29.0863 25.7C29.453 25.7 29.903 25.5167 30.4363 25.15C30.9697 24.75 31.5197 24.2833 32.0863 23.75C33.053 22.8167 33.9363 21.7833 34.7363 20.65C35.5697 19.5167 36.2863 18.4333 36.8863 17.4C36.9863 17.2333 37.153 16.9333 37.3863 16.5C37.653 16.0667 37.9197 15.65 38.1863 15.25C38.4863 14.85 38.7197 14.6167 38.8863 14.55C39.053 14.4833 39.3863 14.3 39.8863 14C40.3863 13.7 40.8863 13.5 41.3863 13.4C41.853 13.3 42.203 13.25 42.4363 13.25C42.803 13.25 42.9863 13.35 42.9863 13.55C42.9863 13.8167 42.8363 13.95 42.5363 13.95C42.1697 13.95 41.8363 14.05 41.5363 14.25C41.2363 14.4167 41.003 14.6333 40.8363 14.9C40.5363 15.3333 40.103 16.1167 39.5363 17.25C39.003 18.3833 38.403 19.7 37.7363 21.2C37.103 22.6667 36.4697 24.1667 35.8363 25.7C35.203 27.2 34.6197 28.5833 34.0863 29.85C33.2863 31.75 32.3697 33.6 31.3363 35.4C30.303 37.2333 29.0863 38.8667 27.6863 40.3C26.3197 41.7667 24.6863 42.9167 22.7863 43.75C21.653 44.25 20.403 44.5 19.0363 44.5ZM50.8457 27.4102C48.8145 27.4102 47.0566 26.9544 45.5723 26.043C44.1009 25.1315 42.9681 23.875 42.1738 22.2734C41.3796 20.6589 40.9824 18.8164 40.9824 16.7461V16.1602C40.9824 14.0768 41.3861 12.2344 42.1934 10.6328C43.0007 9.03125 44.14 7.77474 45.6113 6.86328C47.0827 5.9388 48.8145 5.47656 50.8066 5.47656C52.7077 5.47656 54.3418 5.77604 55.709 6.375C57.0892 6.96094 58.209 7.64453 59.0684 8.42578L59.0293 14.4805H54.7324L53.9707 10.7109C53.6582 10.3984 53.2611 10.1445 52.7793 9.94922C52.2975 9.75391 51.8092 9.65625 51.3145 9.65625C50.2728 9.65625 49.4069 9.91667 48.7168 10.4375C48.0397 10.9583 47.5319 11.7005 47.1934 12.6641C46.8548 13.6276 46.6855 14.793 46.6855 16.1602V16.7461C46.6855 18.1914 46.8743 19.3828 47.252 20.3203C47.6296 21.2448 48.1309 21.9284 48.7559 22.3711C49.3939 22.8138 50.1035 23.0352 50.8848 23.0352C51.8874 23.0352 52.6882 22.7747 53.2871 22.2539C53.8991 21.7201 54.3158 20.9714 54.5371 20.0078H59.4199L59.4785 20.125C59.2572 21.6224 58.8145 22.918 58.1504 24.0117C57.4993 25.1055 56.5749 25.9453 55.377 26.5312C54.1921 27.1172 52.6816 27.4102 50.8457 27.4102ZM72.1543 27.4102C70.1361 27.4102 68.3717 26.9674 66.8613 26.082C65.3509 25.1836 64.179 23.9531 63.3457 22.3906C62.5254 20.8281 62.1152 19.0443 62.1152 17.0391V16.2578C62.1152 14.1615 62.5059 12.306 63.2871 10.6914C64.0684 9.0638 65.1686 7.78776 66.5879 6.86328C68.0202 5.92578 69.7064 5.46354 71.6465 5.47656C73.5605 5.47656 75.1686 5.85417 76.4707 6.60938C77.7728 7.36458 78.7624 8.45182 79.4395 9.87109C80.1165 11.2904 80.4551 13.0091 80.4551 15.0273V18.1328H68.0332L67.9941 18.25C68.0723 19.1745 68.3001 20.0013 68.6777 20.7305C69.0684 21.4466 69.6152 22.013 70.3184 22.4297C71.0215 22.8333 71.8743 23.0352 72.877 23.0352C73.9186 23.0352 74.8887 22.9049 75.7871 22.6445C76.6986 22.3711 77.584 21.974 78.4434 21.4531L79.9863 24.9688C79.1139 25.6719 78.0137 26.2578 76.6855 26.7266C75.3704 27.1823 73.86 27.4102 72.1543 27.4102ZM68.0723 14.3633H75.123V13.8555C75.123 12.9961 75.0059 12.2604 74.7715 11.6484C74.5501 11.0234 74.1855 10.5417 73.6777 10.2031C73.1829 9.86458 72.5384 9.69531 71.7441 9.69531C70.9889 9.69531 70.3509 9.89714 69.8301 10.3008C69.3092 10.6914 68.8991 11.2318 68.5996 11.9219C68.3132 12.612 68.1178 13.3932 68.0137 14.2656L68.0723 14.3633ZM83.5215 27V23.582L86.2559 22.9961V9.89062L83.2285 9.30469V5.86719H91.5684L91.7832 8.48438L91.8223 8.95312C92.3431 7.80729 92.9876 6.94141 93.7559 6.35547C94.5241 5.76953 95.4421 5.47656 96.5098 5.47656C96.8483 5.47656 97.2194 5.50911 97.623 5.57422C98.0267 5.6263 98.3848 5.69792 98.6973 5.78906L98.0918 11.043L95.2598 10.8867C94.4525 10.8477 93.7949 10.9844 93.2871 11.2969C92.7923 11.6094 92.3496 12.0586 91.959 12.6445V22.9961L94.6934 23.582V27H83.5215ZM109.166 27.4102C107.2 27.4102 105.683 26.8698 104.615 25.7891C103.561 24.7083 103.033 22.9961 103.033 20.6523V9.87109H100.123V5.86719H103.033V0.691406H108.717V5.86719H112.604V9.87109H108.717V20.6328C108.717 21.4531 108.886 22.0391 109.225 22.3906C109.576 22.7422 110.051 22.918 110.65 22.918C110.976 22.918 111.314 22.8984 111.666 22.8594C112.031 22.8073 112.343 22.7552 112.604 22.7031L113.092 26.8242C112.506 26.9935 111.868 27.1302 111.178 27.2344C110.501 27.3516 109.83 27.4102 109.166 27.4102ZM124.303 27.4102C122.727 27.4102 121.256 27.2604 119.889 26.9609C118.535 26.6615 117.232 26.2318 115.982 25.6719L115.924 19.6953H119.889L120.65 22.7422C121.093 22.9635 121.575 23.1393 122.096 23.2695C122.63 23.3997 123.235 23.4648 123.912 23.4648C125.188 23.4648 126.087 23.2565 126.607 22.8398C127.128 22.4232 127.389 21.9023 127.389 21.2773C127.389 20.6914 127.109 20.1771 126.549 19.7344C126.002 19.2786 124.902 18.8815 123.248 18.543C120.748 18.0221 118.906 17.2148 117.721 16.1211C116.536 15.0273 115.943 13.6276 115.943 11.9219C115.943 10.75 116.236 9.68229 116.822 8.71875C117.421 7.75521 118.326 6.98047 119.537 6.39453C120.761 5.80859 122.324 5.51562 124.225 5.51562C125.813 5.51562 127.265 5.67188 128.58 5.98438C129.908 6.28385 131.021 6.68099 131.92 7.17578L131.979 12.957H128.033L127.428 10.1836C127.076 9.92318 126.66 9.72786 126.178 9.59766C125.709 9.46745 125.175 9.40234 124.576 9.40234C123.574 9.40234 122.805 9.60417 122.271 10.0078C121.738 10.4115 121.471 10.9323 121.471 11.5703C121.471 11.9349 121.562 12.2734 121.744 12.5859C121.939 12.8984 122.317 13.1914 122.877 13.4648C123.437 13.7383 124.251 13.9987 125.318 14.2461C127.936 14.8451 129.843 15.6458 131.041 16.6484C132.239 17.638 132.838 19.0312 132.838 20.8281C132.838 22.7943 132.122 24.3828 130.689 25.5938C129.27 26.8047 127.141 27.4102 124.303 27.4102Z" fill="white"/>
</svg>
