<svg width="172" height="58" viewBox="0 0 172 58" fill="none" xmlns="http://www.w3.org/2000/svg">
<path d="M0.8 34.05C0.613334 34.05 0.613334 33.84 0.8 33.42C1.03333 33 1.24333 32.5333 1.43 32.02C1.66333 31.5067 1.89667 30.9467 2.13 30.34C2.59667 29.22 3.11 27.96 3.67 26.56C4.23 25.16 4.76667 23.8067 5.28 22.5C5.79333 21.1467 6.23667 20.0033 6.61 19.07C7.03 18.09 7.31 17.46 7.45 17.18C6.79667 17.88 6.00333 18.7667 5.07 19.84C4.18333 20.8667 3.34333 21.87 2.55 22.85C1.75667 23.83 1.15 24.6 0.73 25.16C0.59 25.3467 0.473333 25.44 0.38 25.44C0.286667 25.44 0.24 25.3233 0.24 25.09C0.24 24.7167 0.356667 24.3667 0.59 24.04C1.47667 22.92 2.45667 21.66 3.53 20.26C4.65 18.86 5.65333 17.5767 6.54 16.41C7.42667 15.1967 7.98667 14.4033 8.22 14.03C8.73333 13.9367 9.48 13.7967 10.46 13.61C11.4867 13.4233 12.1867 13.1667 12.56 12.84C12.7 12.7 12.84 12.63 12.98 12.63C13.0733 12.63 13.12 12.7233 13.12 12.91C13.1667 13.05 13.12 13.2133 12.98 13.4C12.7 13.7267 12.21 14.4967 11.51 15.71C10.8567 16.8767 10.1333 18.1833 9.34 19.63C8.59333 21.0767 7.89333 22.3833 7.24 23.55C7.98667 22.6633 8.71 21.8233 9.41 21.03C10.1567 20.2367 10.67 19.6767 10.95 19.35C11.51 18.79 12.28 18.09 13.26 17.25C14.24 16.41 15.2667 15.64 16.34 14.94C17.4133 14.24 18.3467 13.8433 19.14 13.75C19.3267 13.7033 19.49 13.68 19.63 13.68C19.77 13.68 19.91 13.68 20.05 13.68C20.9367 13.68 21.38 14.0067 21.38 14.66C21.38 14.94 21.31 15.2667 21.17 15.64C21.03 16.0133 20.8433 16.3867 20.61 16.76C20.33 17.32 19.8633 18.2067 19.21 19.42C18.5567 20.5867 17.9733 21.66 17.46 22.64L20.75 19.35C21.31 18.79 22.08 18.09 23.06 17.25C24.04 16.41 25.0667 15.64 26.14 14.94C27.2133 14.24 28.1467 13.8433 28.94 13.75C29.1267 13.7033 29.29 13.68 29.43 13.68C29.6167 13.68 29.7567 13.68 29.85 13.68C30.8767 13.68 31.39 14.0533 31.39 14.8C31.39 15.36 31.0867 16.1067 30.48 17.04C30.1533 17.5533 29.64 18.4167 28.94 19.63C28.24 20.8433 27.5167 22.1733 26.77 23.62C26.07 25.02 25.4633 26.3267 24.95 27.54C24.4367 28.7533 24.18 29.64 24.18 30.2C24.18 30.8533 24.5067 31.18 25.16 31.18C25.7667 31.18 26.5367 30.83 27.47 30.13C28.45 29.3833 29.43 28.4967 30.41 27.47C31.4367 26.4433 32.3233 25.4633 33.07 24.53C33.3967 24.1567 33.7 23.7833 33.98 23.41C34.3067 22.99 34.4933 22.7567 34.54 22.71C34.6333 22.8033 34.68 22.9667 34.68 23.2C34.68 23.5267 34.5633 23.8533 34.33 24.18C34.1433 24.46 33.9567 24.7167 33.77 24.95C32.8833 26.1167 31.8567 27.33 30.69 28.59C29.57 29.85 28.3333 30.9233 26.98 31.81C25.6267 32.65 24.18 33.14 22.64 33.28C22.1733 33.3267 21.7067 33.2333 21.24 33C20.7733 32.7667 20.54 32.3933 20.54 31.88C20.54 31.2267 20.7033 30.4567 21.03 29.57C21.4033 28.6833 21.8 27.7967 22.22 26.91C22.6867 26.0233 23.0367 25.3 23.27 24.74C24.11 23.1067 24.88 21.5667 25.58 20.12C26.28 18.6733 26.77 17.6467 27.05 17.04C27.19 16.76 27.26 16.5267 27.26 16.34C27.26 16.0133 27.0033 15.99 26.49 16.27C25.9767 16.55 25.3467 16.97 24.6 17.53C23.9 18.09 23.2467 18.65 22.64 19.21C22.0333 19.7233 21.6367 20.0733 21.45 20.26C20.6567 21.0533 19.7 22.1267 18.58 23.48C17.5067 24.8333 16.5033 26.2567 15.57 27.75C14.6367 29.1967 13.9833 30.55 13.61 31.81C13.1433 32.23 12.7 32.44 12.28 32.44C11.9533 32.44 11.6733 32.3233 11.44 32.09C11.2533 31.8567 11.16 31.5767 11.16 31.25C11.16 30.3167 11.44 29.22 12 27.96C12.6067 26.6533 13.0967 25.58 13.47 24.74C14.31 23.1067 15.08 21.5667 15.78 20.12C16.48 18.6733 16.97 17.6467 17.25 17.04C17.39 16.76 17.46 16.5267 17.46 16.34C17.46 16.0133 17.2033 15.99 16.69 16.27C16.1767 16.55 15.5467 16.97 14.8 17.53C14.1 18.09 13.4467 18.65 12.84 19.21C12.2333 19.7233 11.8367 20.0733 11.65 20.26C10.53 21.4267 9.48 22.6167 8.5 23.83C7.56667 25.0433 6.77333 26.35 6.12 27.75C5.74667 28.59 5.35 29.5233 4.93 30.55C4.51 31.5767 4.16 32.44 3.88 33.14C3.27333 33.1867 2.66667 33.35 2.06 33.63C1.45333 33.91 1.03333 34.05 0.8 34.05ZM26.0509 57.5C24.2775 57.5 22.5742 57.08 20.9409 56.24C19.2609 55.4467 18.0242 54.21 17.2309 52.53C16.9509 51.9233 16.7642 51.27 16.6709 50.57C16.5775 49.9167 16.5309 49.2633 16.5309 48.61V47.84C16.5309 47.4667 16.5775 47.1167 16.6709 46.79C16.7642 46.51 16.9975 46.37 17.3709 46.37C17.4642 46.37 17.5109 46.4167 17.5109 46.51C17.5109 46.79 17.4875 47.07 17.4409 47.35C17.3942 47.63 17.3709 47.9333 17.3709 48.26C17.3709 50.4067 18.0709 52.04 19.4709 53.16C20.8242 54.28 22.5275 54.84 24.5809 54.84C25.4209 54.84 26.2842 54.7467 27.1709 54.56C28.0575 54.3733 28.8975 54.1167 29.6909 53.79C32.6309 52.53 35.1742 50.7333 37.3209 48.4C39.5142 46.1133 41.4275 43.5233 43.0609 40.63C44.6942 37.7367 46.1642 34.7967 47.4709 31.81C48.2175 30.0367 48.8709 28.31 49.4309 26.63C50.0375 24.95 50.5742 23.4333 51.0409 22.08C50.5742 22.7333 49.9675 23.5267 49.2209 24.46C48.4742 25.3933 47.7275 26.3033 46.9809 27.19C46.2342 28.03 45.5809 28.7067 45.0209 29.22C43.8542 30.34 42.5942 31.2967 41.2409 32.09C39.9342 32.8367 38.5809 33.21 37.1809 33.21C36.7142 33.21 36.3175 33.1167 35.9909 32.93C35.6642 32.7433 35.5009 32.3933 35.5009 31.88C35.5009 31.2267 35.6642 30.4567 35.9909 29.57C36.3642 28.6833 36.7609 27.7967 37.1809 26.91C37.6009 26.0233 37.9509 25.3 38.2309 24.74C38.7909 23.6667 39.3275 22.5933 39.8409 21.52C40.3542 20.4467 40.7975 19.5367 41.1709 18.79C41.5442 18.09 41.7309 17.6233 41.7309 17.39C41.7309 17.0167 41.4509 17.0167 40.8909 17.39C40.3775 17.7633 39.8875 18.1367 39.4209 18.51C38.3942 19.49 37.3209 20.6567 36.2009 22.01C35.0809 23.3167 34.2175 24.3667 33.6109 25.16C33.4709 25.3467 33.3542 25.44 33.2609 25.44C33.1675 25.44 33.1209 25.3233 33.1209 25.09C33.1209 24.7167 33.2375 24.3667 33.4709 24.04C34.1242 23.1067 34.8942 22.08 35.7809 20.96C36.6675 19.84 37.5775 18.7667 38.5109 17.74C39.3975 16.8067 40.3075 15.8967 41.2409 15.01C42.1742 14.1233 43.3642 13.68 44.8109 13.68C45.7909 13.68 46.2809 14.0533 46.2809 14.8C46.2809 15.4533 46.0009 16.2 45.4409 17.04C45.1142 17.5533 44.6009 18.4167 43.9009 19.63C43.2009 20.8433 42.4775 22.1733 41.7309 23.62C41.0309 25.02 40.4242 26.3267 39.9109 27.54C39.3975 28.7533 39.1409 29.64 39.1409 30.2C39.1409 30.8533 39.4675 31.18 40.1209 31.18C40.6342 31.18 41.2642 30.9233 42.0109 30.41C42.7575 29.85 43.5275 29.1967 44.3209 28.45C45.6742 27.1433 46.9109 25.6967 48.0309 24.11C49.1975 22.5233 50.2009 21.0067 51.0409 19.56C51.1809 19.3267 51.4142 18.9067 51.7409 18.3C52.1142 17.6933 52.4875 17.11 52.8609 16.55C53.2809 15.99 53.6075 15.6633 53.8409 15.57C54.0742 15.4767 54.5409 15.22 55.2409 14.8C55.9409 14.38 56.6409 14.1 57.3409 13.96C57.9942 13.82 58.4842 13.75 58.8109 13.75C59.3242 13.75 59.5809 13.89 59.5809 14.17C59.5809 14.5433 59.3709 14.73 58.9509 14.73C58.4375 14.73 57.9709 14.87 57.5509 15.15C57.1309 15.3833 56.8042 15.6867 56.5709 16.06C56.1509 16.6667 55.5442 17.7633 54.7509 19.35C54.0042 20.9367 53.1642 22.78 52.2309 24.88C51.3442 26.9333 50.4575 29.0333 49.5709 31.18C48.6842 33.28 47.8675 35.2167 47.1209 36.99C46.0009 39.65 44.7175 42.24 43.2709 44.76C41.8242 47.3267 40.1209 49.6133 38.1609 51.62C36.2475 53.6733 33.9609 55.2833 31.3009 56.45C29.7142 57.15 27.9642 57.5 26.0509 57.5ZM68.9082 33.5127C66.3691 33.5127 64.1719 32.943 62.3164 31.8037C60.4772 30.6644 59.0612 29.0938 58.0684 27.0918C57.0755 25.0736 56.5791 22.7705 56.5791 20.1826V19.4502C56.5791 16.846 57.0837 14.543 58.0928 12.541C59.1019 10.5391 60.526 8.96842 62.3652 7.8291C64.2044 6.6735 66.3691 6.0957 68.8594 6.0957C71.2357 6.0957 73.2783 6.47005 74.9873 7.21875C76.7126 7.95117 78.1123 8.80566 79.1865 9.78223L79.1377 17.3506H73.7666L72.8145 12.6387C72.4238 12.248 71.9274 11.9307 71.3252 11.6865C70.723 11.4424 70.1126 11.3203 69.4941 11.3203C68.1921 11.3203 67.1097 11.6458 66.2471 12.2969C65.4007 12.9479 64.766 13.8757 64.3428 15.0801C63.9196 16.2845 63.708 17.7412 63.708 19.4502V20.1826C63.708 21.9893 63.944 23.4785 64.416 24.6504C64.888 25.806 65.5146 26.6605 66.2959 27.2139C67.0934 27.7673 67.9805 28.0439 68.957 28.0439C70.2103 28.0439 71.2113 27.7184 71.96 27.0674C72.7249 26.4001 73.2458 25.4642 73.5225 24.2598H79.626L79.6992 24.4062C79.4225 26.278 78.8691 27.8975 78.0391 29.2646C77.2253 30.6318 76.0697 31.6816 74.5723 32.4141C73.0911 33.1465 71.2031 33.5127 68.9082 33.5127ZM95.5439 33.5127C93.0212 33.5127 90.8158 32.9593 88.9277 31.8525C87.0397 30.7295 85.5749 29.1914 84.5332 27.2383C83.5078 25.2852 82.9951 23.0553 82.9951 20.5488V19.5723C82.9951 16.9518 83.4834 14.6325 84.46 12.6143C85.4365 10.5798 86.8118 8.9847 88.5859 7.8291C90.3763 6.65723 92.484 6.07943 94.9092 6.0957C97.3018 6.0957 99.3118 6.56771 100.939 7.51172C102.567 8.45573 103.804 9.81478 104.65 11.5889C105.497 13.363 105.92 15.5114 105.92 18.0342V21.916H90.3926L90.3438 22.0625C90.4414 23.2181 90.7262 24.2516 91.1982 25.1631C91.6865 26.0583 92.3701 26.7663 93.249 27.2871C94.1279 27.7917 95.194 28.0439 96.4473 28.0439C97.7493 28.0439 98.9619 27.8812 100.085 27.5557C101.224 27.2139 102.331 26.7174 103.405 26.0664L105.334 30.4609C104.243 31.3398 102.868 32.0723 101.208 32.6582C99.5641 33.2279 97.6761 33.5127 95.5439 33.5127ZM90.4414 17.2041H99.2549V16.5693C99.2549 15.4951 99.1084 14.5755 98.8154 13.8105C98.5387 13.0293 98.083 12.4271 97.4482 12.0039C96.8298 11.5807 96.0241 11.3691 95.0312 11.3691C94.0872 11.3691 93.2897 11.6214 92.6387 12.126C91.9876 12.6143 91.4749 13.2897 91.1006 14.1523C90.7425 15.015 90.4984 15.9915 90.3682 17.082L90.4414 17.2041ZM109.753 33V28.7275L113.171 27.9951V11.6133L109.387 10.8809V6.58398H119.812L120.08 9.85547L120.129 10.4414C120.78 9.00911 121.586 7.92676 122.546 7.19434C123.506 6.46191 124.654 6.0957 125.988 6.0957C126.411 6.0957 126.875 6.13639 127.38 6.21777C127.884 6.28288 128.332 6.3724 128.723 6.48633L127.966 13.0537L124.426 12.8584C123.417 12.8096 122.595 12.9805 121.96 13.3711C121.341 13.7617 120.788 14.3232 120.3 15.0557V27.9951L123.718 28.7275V33H109.753ZM141.809 33.5127C139.351 33.5127 137.455 32.8372 136.12 31.4863C134.802 30.1354 134.143 27.9951 134.143 25.0654V11.5889H130.505V6.58398H134.143V0.114258H141.247V6.58398H146.105V11.5889H141.247V25.041C141.247 26.0664 141.459 26.7988 141.882 27.2383C142.321 27.6777 142.915 27.8975 143.664 27.8975C144.071 27.8975 144.494 27.873 144.934 27.8242C145.389 27.7591 145.78 27.694 146.105 27.6289L146.716 32.7803C145.983 32.9919 145.186 33.1628 144.323 33.293C143.477 33.4395 142.639 33.5127 141.809 33.5127ZM160.729 33.5127C158.76 33.5127 156.921 33.3255 155.212 32.9512C153.519 32.5768 151.892 32.0397 150.329 31.3398L150.256 23.8691H155.212L156.164 27.6777C156.717 27.9544 157.32 28.1742 157.971 28.3369C158.638 28.4997 159.395 28.5811 160.241 28.5811C161.836 28.5811 162.959 28.3206 163.61 27.7998C164.261 27.279 164.587 26.6279 164.587 25.8467C164.587 25.1143 164.237 24.4714 163.537 23.918C162.854 23.3483 161.478 22.8519 159.411 22.4287C156.286 21.7777 153.983 20.7686 152.502 19.4014C151.021 18.0342 150.28 16.2845 150.28 14.1523C150.28 12.6875 150.646 11.3529 151.379 10.1484C152.128 8.94401 153.259 7.97559 154.772 7.24316C156.302 6.51074 158.256 6.14453 160.632 6.14453C162.618 6.14453 164.432 6.33984 166.076 6.73047C167.736 7.10482 169.128 7.60124 170.251 8.21973L170.324 15.4463H165.393L164.636 11.9795C164.196 11.654 163.675 11.4098 163.073 11.2471C162.487 11.0843 161.82 11.0029 161.071 11.0029C159.818 11.0029 158.858 11.2552 158.19 11.7598C157.523 12.2643 157.189 12.9154 157.189 13.7129C157.189 14.1686 157.303 14.5918 157.531 14.9824C157.775 15.373 158.247 15.7393 158.947 16.0811C159.647 16.4229 160.664 16.7484 161.999 17.0576C165.271 17.8063 167.655 18.8073 169.152 20.0605C170.65 21.2975 171.398 23.0391 171.398 25.2852C171.398 27.7428 170.503 29.7285 168.713 31.2422C166.939 32.7559 164.278 33.5127 160.729 33.5127Z" fill="#797575"/>
</svg>
